<?xml version="1.0" encoding="UTF-8" standalone="no"?>
<!-- Uploaded to: SVG Repo, www.svgrepo.com, Generator: SVG Repo Mixer Tools -->

<svg
   width="800"
   height="237.09995"
   viewBox="0 -569.63 1619.125 479.86806"
   version="1.1"
   id="svg11"
   sodipodi:docname="appstore.svg"
   xmlns:inkscape="http://www.inkscape.org/namespaces/inkscape"
   xmlns:sodipodi="http://sodipodi.sourceforge.net/DTD/sodipodi-0.dtd"
   xmlns="http://www.w3.org/2000/svg"
   xmlns:svg="http://www.w3.org/2000/svg">
  <defs
     id="defs11" />
  <sodipodi:namedview
     id="namedview11"
     pagecolor="#ffffff"
     bordercolor="#000000"
     borderopacity="0.25"
     inkscape:showpageshadow="2"
     inkscape:pageopacity="0.0"
     inkscape:pagecheckerboard="0"
     inkscape:deskcolor="#d1d1d1">
    <inkscape:page
       x="0"
       y="0"
       width="1619.125"
       height="479.86807"
       id="page2"
       margin="0"
       bleed="0" />
  </sodipodi:namedview>
  <path
     d="m 1608.385,-146.414 c 0,25.393 -20.568,45.96 -46.008,45.96 H 56.748 c -25.428,0 -46.067,-20.567 -46.067,-45.96 V -512.93 c 0,-25.38 20.64,-46.02 46.067,-46.02 h 1505.616 c 25.452,0 46.009,20.64 46.009,46.02 z"
     fill="#ffffff"
     id="path1" />
  <path
     d="M 1562.377,-89.762006 H 56.748 C 25.464,-89.762006 0,-115.166 0,-146.414 v -366.504 c 0,-31.272 25.464,-56.712 56.748,-56.712 h 1505.616 c 31.248,0 56.748,25.44 56.748,56.712 v 366.504 c 0.024,31.248 -25.476,56.651994 -56.735,56.651994 z"
     fill="#a6a6a6"
     id="path2" />
  <path
     d="m 1608.385,-146.414 c 0,25.393 -20.568,45.96 -46.008,45.96 H 56.748 c -25.428,0 -46.067,-20.567 -46.067,-45.96 V -512.93 c 0,-25.38 20.64,-46.02 46.067,-46.02 h 1505.616 c 25.452,0 46.009,20.64 46.009,46.02 z"
     id="path3" />
  <path
     d="m 361.536,-332.222 c -0.348,-38.676 31.668,-57.492 33.132,-58.368 -18.132,-26.436 -46.235,-30.048 -56.111,-30.336 -23.604,-2.484 -46.5,14.124 -58.524,14.124 -12.264,0 -30.78,-13.884 -50.736,-13.476 -25.68,0.396 -49.703,15.264 -62.88,38.352 -27.191,47.076 -6.912,116.256 19.141,154.308 13.031,18.648 28.26,39.444 48.191,38.712 19.5,-0.792 26.784,-12.42 50.316,-12.42 23.315,0 30.156,12.42 50.483,11.952 20.929,-0.324 34.104,-18.72 46.681,-37.524 15.06,-21.348 21.107,-42.396 21.348,-43.476 -0.481,-0.168 -40.633,-15.504 -41.041,-61.848 z m -38.4,-113.736 c 10.487,-13.116 17.664,-30.96 15.672,-49.068 -15.181,0.672 -34.164,10.5 -45.097,23.328 -9.672,11.304 -18.312,29.832 -16.08,47.256 17.053,1.272 34.561,-8.604 45.505,-21.516 z"
     fill="#ffffff"
     id="path4" />
  <linearGradient
     id="a"
     gradientUnits="userSpaceOnUse"
     x1="-589.992"
     y1="1661.375"
     x2="-589.992"
     y2="1625.329"
     gradientTransform="matrix(12,0,0,12,8267.433,-20024.958)">
    <stop
       offset="0"
       stop-color="#1a1a1a"
       stop-opacity=".1"
       id="stop4" />
    <stop
       offset=".123"
       stop-color="#212121"
       stop-opacity=".151"
       id="stop5" />
    <stop
       offset=".308"
       stop-color="#353535"
       stop-opacity=".227"
       id="stop6" />
    <stop
       offset=".532"
       stop-color="#575757"
       stop-opacity=".318"
       id="stop7" />
    <stop
       offset=".783"
       stop-color="#858585"
       stop-opacity=".421"
       id="stop8" />
    <stop
       offset="1"
       stop-color="#b3b3b3"
       stop-opacity=".51"
       id="stop9" />
  </linearGradient>
  <path
     d="M 1562.377,-569.63 H 755.916 l 315.877,479.867994 h 490.584 c 31.248,0 56.748,-25.403994 56.748,-56.687994 v -366.468 c 0.011,-31.272 -25.489,-56.712 -56.748,-56.712 z"
     fill="url(#a)"
     id="path9"
     style="fill:url(#a)" />
  <g
     fill="#ffffff"
     id="g10"
     transform="translate(0,-569.63)">
    <path
       d="M 643.98,378.048 H 616.728 L 601.8,331.14 h -51.889 l -14.22,46.908 H 509.16 l 51.42,-159.696 h 31.752 z m -46.679,-66.588 -13.5,-41.7 c -1.428,-4.26 -4.116,-14.292 -8.053,-30.084 h -0.479 c -1.584,6.792 -4.116,16.824 -7.584,30.084 l -13.272,41.7 z m 178.656,7.596 c 0,19.584 -5.316,35.064 -15.961,46.429 -9.527,10.115 -21.371,15.168 -35.496,15.168 -15.252,0 -26.22,-5.437 -32.88,-16.332 v 60.42 H 666.036 V 300.744 c 0,-12.301 -0.323,-24.912 -0.947,-37.848 h 22.5 l 1.428,18.252 h 0.479 c 8.532,-13.752 21.48,-20.629 38.856,-20.629 13.584,0 24.924,5.364 33.996,16.104 9.06,10.765 13.609,24.901 13.609,42.433 z m -26.065,0.936 c 0,-11.208 -2.52,-20.448 -7.584,-27.732 -5.532,-7.572 -12.96,-11.363 -22.272,-11.363 -6.312,0 -12.048,2.111 -17.172,6.275 -5.136,4.2 -8.496,9.684 -10.067,16.476 -0.792,3.168 -1.188,5.748 -1.188,7.789 v 19.211 c 0,8.364 2.568,15.433 7.704,21.217 5.136,5.76 11.808,8.651 20.016,8.651 9.637,0 17.137,-3.731 22.5,-11.136 5.375,-7.428 8.063,-17.22 8.063,-29.388 z M 908.4,319.056 c 0,19.584 -5.316,35.064 -15.96,46.429 -9.54,10.115 -21.372,15.168 -35.508,15.168 -15.252,0 -26.22,-5.437 -32.88,-16.332 v 60.42 H 798.468 V 300.744 c 0,-12.301 -0.324,-24.912 -0.948,-37.848 h 22.5 l 1.428,18.252 h 0.48 c 8.52,-13.752 21.468,-20.629 38.855,-20.629 13.572,0 24.912,5.364 34.009,16.104 9.049,10.765 13.608,24.901 13.608,42.433 z m -26.076,0.936 c 0,-11.208 -2.531,-20.448 -7.596,-27.732 -5.532,-7.572 -12.936,-11.363 -22.248,-11.363 -6.312,0 -12.048,2.111 -17.196,6.275 -5.136,4.2 -8.483,9.684 -10.056,16.476 -0.78,3.168 -1.2,5.748 -1.2,7.789 v 19.211 c 0,8.364 2.58,15.433 7.692,21.217 5.136,5.748 11.808,8.651 20.04,8.651 9.647,0 17.147,-3.731 22.5,-11.136 5.376,-7.428 8.064,-17.22 8.064,-29.388 z m 174.156,13.26 c 0,13.596 -4.752,24.648 -14.195,33.18 -10.393,9.312 -24.9,13.98 -43.501,13.98 -17.184,0 -30.96,-3.312 -41.352,-9.948 l 5.916,-21.324 c 11.22,6.648 23.544,9.96 36.96,9.96 9.648,0 17.148,-2.184 22.5,-6.516 5.363,-4.344 8.076,-10.152 8.076,-17.4 0,-6.491 -2.244,-11.928 -6.648,-16.355 -4.428,-4.416 -11.748,-8.532 -22.031,-12.312 -27.961,-10.428 -41.953,-25.68 -41.953,-45.744 0,-13.104 4.944,-23.832 14.809,-32.22 9.864,-8.376 22.944,-12.563 39.216,-12.563 14.532,0 26.64,2.532 36.252,7.584 l -6.42,20.855 c -9.048,-4.896 -19.261,-7.344 -30.685,-7.344 -9.023,0 -16.104,2.22 -21.168,6.636 -4.26,3.948 -6.42,8.761 -6.42,14.472 0,6.301 2.461,11.533 7.356,15.637 4.248,3.779 12,7.896 23.208,12.312 13.752,5.544 23.855,12 30.324,19.416 6.516,7.414 9.756,16.666 9.756,27.694 z m 84.805,-51.156 h -28.201 v 55.908 c 0,14.22 4.969,21.312 14.929,21.312 4.571,0 8.364,-0.385 11.364,-1.188 l 0.707,19.428 c -5.039,1.885 -11.676,2.832 -19.896,2.832 -10.104,0 -18,-3.084 -23.7,-9.252 -5.676,-6.168 -8.531,-16.5 -8.531,-31.044 v -58.044 h -16.801 v -19.2 h 16.801 v -21.084 l 25.127,-7.584 v 28.668 h 28.201 z m 126.983,37.428 c 0,17.699 -5.063,32.231 -15.168,43.596 -10.572,11.7 -24.636,17.532 -42.168,17.532 -16.92,0 -30.372,-5.604 -40.404,-16.8 -10.032,-11.221 -15.048,-25.356 -15.048,-42.408 0,-17.845 5.184,-32.46 15.516,-43.824 10.356,-11.376 24.301,-17.063 41.832,-17.063 16.896,0 30.469,5.615 40.74,16.823 9.817,10.872 14.7,24.912 14.7,42.144 z m -26.52,0.588 c 0,-10.549 -2.279,-19.597 -6.852,-27.169 -5.364,-9.144 -13.044,-13.715 -22.992,-13.715 -10.248,0 -18.107,4.571 -23.46,13.715 -4.584,7.572 -6.864,16.776 -6.864,27.648 0,10.561 2.28,19.632 6.864,27.181 5.532,9.144 13.248,13.716 23.244,13.716 9.78,0 17.448,-4.668 22.992,-13.944 4.705,-7.752 7.068,-16.86 7.068,-27.432 z m 109.717,-34.716 c -2.532,-0.469 -5.244,-0.709 -8.064,-0.709 -9,0 -15.96,3.385 -20.855,10.2 -4.248,6 -6.385,13.584 -6.385,22.74 v 60.42 h -25.584 V 299.16 c 0,-13.26 -0.252,-25.356 -0.744,-36.252 h 22.285 l 0.936,22.031 h 0.708 c 2.712,-7.571 6.96,-13.68 12.792,-18.252 5.7,-4.115 11.855,-6.168 18.492,-6.168 2.363,0 4.5,0.168 6.396,0.469 z m 114.42,29.628 c 0,4.584 -0.301,8.447 -0.937,11.604 h -76.752 c 0.288,11.376 4.009,20.088 11.136,26.088 6.469,5.353 14.832,8.04 25.104,8.04 11.364,0 21.731,-1.8 31.056,-5.436 l 4.008,17.748 c -10.896,4.752 -23.76,7.116 -38.604,7.116 -17.855,0 -31.872,-5.257 -42.072,-15.744 -10.176,-10.5 -15.275,-24.612 -15.275,-42.288 0,-17.353 4.74,-31.812 14.231,-43.344 9.937,-12.312 23.364,-18.469 40.261,-18.469 16.596,0 29.159,6.156 37.691,18.469 6.756,9.756 10.153,21.852 10.153,36.216 z m -24.397,-6.636 c 0.18,-7.596 -1.5,-14.136 -4.968,-19.668 -4.429,-7.128 -11.244,-10.68 -20.376,-10.68 -8.364,0 -15.18,3.468 -20.364,10.428 -4.26,5.532 -6.792,12.18 -7.571,19.896 z"
       id="path10" />
  </g>
  <g
     fill="#ffffff"
     id="g11"
     transform="translate(0,-569.63)">
    <path
       d="M 584.965,161.196 H 571.56 l -7.332,-23.052 h -25.5 l -6.996,23.052 H 518.688 L 543.96,82.704 h 15.6 z m -22.945,-32.724 -6.636,-20.496 c -0.696,-2.1 -1.98,-6.984 -3.96,-14.784 h -0.24 c -0.816,3.372 -1.98,8.268 -3.732,14.784 l -6.516,20.496 z m 86.136,-23.868 -21.432,56.592 H 614.495 L 593.76,104.604 h 13.512 l 9.672,29.928 c 1.632,5.004 3.024,9.78 4.068,14.316 h 0.348 c 0.937,-4.068 2.328,-8.844 4.068,-14.316 l 9.552,-29.928 z m 45.624,56.592 -0.936,-6.517 h -0.349 c -3.84,5.244 -9.432,7.8 -16.535,7.8 -10.129,0 -17.353,-7.104 -17.353,-16.656 0,-13.968 12.108,-21.192 33.072,-21.192 v -1.044 c 0,-7.452 -3.96,-11.184 -11.76,-11.184 -5.593,0 -10.488,1.404 -14.784,4.2 l -2.557,-8.268 c 5.244,-3.264 11.761,-4.896 19.452,-4.896 14.784,0 22.248,7.8 22.248,23.412 v 20.844 c 0,5.712 0.24,10.14 0.816,13.512 z m -1.752,-28.188 c -13.979,0 -20.964,3.384 -20.964,11.412 0,5.94 3.612,8.844 8.616,8.844 6.407,0 12.348,-4.884 12.348,-11.52 z m 40.26,-37.728 c -4.188,0 -7.452,-3.264 -7.452,-7.572 0,-4.308 3.373,-7.452 7.692,-7.452 4.308,0 7.8,3.144 7.681,7.452 0,4.548 -3.252,7.572 -7.921,7.572 z m 6.528,65.916 H 726.24 v -56.592 h 12.576 z m 34.92,0 H 761.16 v -82.56 h 12.576 z m 53.448,0 -0.937,-6.517 H 825.9 c -3.84,5.244 -9.432,7.8 -16.536,7.8 -10.128,0 -17.352,-7.104 -17.352,-16.656 0,-13.968 12.107,-21.192 33.071,-21.192 v -1.044 c 0,-7.452 -3.96,-11.184 -11.76,-11.184 -5.592,0 -10.488,1.404 -14.784,4.2 l -2.567,-8.28 c 5.244,-3.264 11.76,-4.896 19.452,-4.896 14.784,0 22.247,7.8 22.247,23.412 v 20.844 c 0,5.712 0.253,10.14 0.805,13.512 h -11.292 z m -1.752,-28.188 c -13.98,0 -20.964,3.384 -20.964,11.412 0,5.94 3.611,8.844 8.615,8.844 6.408,0 12.349,-4.884 12.349,-11.52 z m 63.193,29.472 c -8.028,0 -13.957,-3.384 -17.797,-10.02 h -0.252 l -0.72,8.736 H 859.14 c 0.348,-4.536 0.468,-9.672 0.468,-15.252 V 78.636 h 12.588 v 34.248 h 0.24 c 3.731,-6.288 9.769,-9.432 18.048,-9.432 13.632,0 23.184,11.652 23.184,28.644 0,17.568 -10.608,30.384 -25.043,30.384 z m -2.557,-49.152 c -7.236,0 -13.859,6.288 -13.859,15.024 v 9.9 c 0,7.8 5.951,14.208 13.644,14.208 9.42,0 15.024,-7.68 15.024,-19.908 -0.013,-11.412 -5.845,-19.224 -14.809,-19.224 z m 58.764,47.868 h -12.563 v -82.56 h 12.563 z m 68.461,-25.272 h -37.752 c 0.252,10.716 7.331,16.764 17.819,16.764 5.592,0 10.716,-0.936 15.252,-2.676 l 1.956,8.736 c -5.352,2.328 -11.64,3.492 -18.972,3.492 -17.712,0 -28.188,-11.184 -28.188,-28.524 0,-17.352 10.729,-30.396 26.772,-30.396 14.437,0 23.532,10.716 23.532,26.904 0.048,2.208 -0.06,4.188 -0.419,5.7 z m -11.533,-8.964 c 0,-8.736 -4.429,-14.904 -12.468,-14.904 -7.225,0 -12.912,6.288 -13.752,14.904 z m 87.756,35.52 c -16.536,0 -27.252,-12.348 -27.252,-29.112 0,-17.472 10.944,-29.928 28.2,-29.928 16.283,0 27.252,11.76 27.252,29.004 0,17.688 -11.304,30.036 -28.2,30.036 z m 0.48,-49.848 c -9.084,0 -14.903,8.496 -14.903,20.376 0,11.652 5.94,20.148 14.784,20.148 8.844,0 14.771,-9.084 14.771,-20.388 0.012,-11.52 -5.808,-20.136 -14.652,-20.136 z m 95.328,48.564 h -12.563 V 128.7 c 0,-10.008 -3.841,-15.024 -11.412,-15.024 -7.452,0 -12.588,6.408 -12.588,13.86 v 33.66 h -12.564 V 120.78 c 0,-5.004 -0.132,-10.368 -0.468,-16.188 h 11.064 l 0.588,8.736 h 0.348 c 3.359,-6.048 10.248,-9.9 17.928,-9.9 11.868,0 19.668,9.084 19.668,23.868 v 33.9 z m 82.284,-47.16 h -13.836 v 27.48 c 0,6.996 2.437,10.488 7.32,10.488 2.22,0 4.092,-0.24 5.592,-0.588 l 0.349,9.552 c -2.449,0.937 -5.725,1.404 -9.769,1.404 -9.912,0 -15.828,-5.472 -15.828,-19.8 v -28.536 h -8.256 v -9.432 h 8.256 V 94.236 l 12.336,-3.732 v 14.088 h 13.836 z m 66.601,47.16 H 1321.62 V 128.94 c 0,-10.128 -3.84,-15.252 -11.411,-15.252 -6.517,0 -12.564,4.428 -12.564,13.392 v 34.116 h -12.588 v -82.56 h 12.588 v 33.996 h 0.24 c 3.96,-6.168 9.672,-9.204 17.004,-9.204 11.988,0 19.32,9.312 19.32,24.108 z m 64.26,-25.272 h -37.74 c 0.24,10.716 7.32,16.764 17.809,16.764 5.604,0 10.715,-0.936 15.252,-2.676 l 1.968,8.736 c -5.353,2.328 -11.652,3.492 -18.984,3.492 -17.712,0 -28.188,-11.184 -28.188,-28.524 0,-17.352 10.729,-30.396 26.772,-30.396 14.437,0 23.532,10.716 23.532,26.904 0.046,2.208 -0.074,4.188 -0.421,5.7 z m -11.533,-8.964 c 0,-8.736 -4.416,-14.904 -12.456,-14.904 -7.236,0 -12.924,6.288 -13.752,14.904 z"
       id="path11" />
  </g>
</svg>
